<svg width="177" height="43" viewBox="0 0 177 43" fill="none" xmlns="http://www.w3.org/2000/svg">
<path d="M0.012992 28.8494H3.17197V29.1832C3.17197 33.8563 4.92695 36.8604 8.43692 38.2433C10.4552 39.1016 13.2631 39.5785 16.9047 39.5785C20.8096 39.5785 23.7053 39.0539 25.5919 37.9572C28.3999 36.4313 29.8039 33.9516 29.8039 30.566C29.8039 28.1341 28.9264 26.2744 27.2153 24.9392C25.899 23.9378 23.442 23.1272 19.7566 22.4119L14.2284 21.3628C14.2284 21.3628 13.7019 21.2675 12.8244 21.1244C11.9469 20.9337 11.3765 20.8383 11.1133 20.7906C10.85 20.7429 10.3235 20.5999 9.57766 20.4568C8.78792 20.2661 8.21755 20.123 7.82268 19.98C7.4278 19.8369 6.90131 19.6462 6.28706 19.4078C5.67282 19.1693 5.14632 18.9309 4.6637 18.6448C4.22496 18.3587 3.78621 18.0726 3.39134 17.7865C1.5486 16.3082 0.671111 14.2101 0.671111 11.4921C0.671111 7.43884 2.20672 4.38701 5.3657 2.33656C7.7788 0.762958 11.3326 0 15.9395 0C20.5463 0 24.2757 0.810643 26.9081 2.38424C30.1549 4.38701 31.7343 7.39116 31.7343 11.349H28.5754C28.5754 8.24949 27.303 6.0083 24.7144 4.53007C22.74 3.29026 19.8004 2.71804 15.9395 2.71804C12.4734 2.71804 9.70928 3.29026 7.6033 4.48238C5.05857 5.96061 3.83008 8.2018 3.83008 11.1106C3.83008 13.161 4.4882 14.7823 5.76057 15.9268C5.97994 16.1175 6.19931 16.3082 6.46256 16.4513C6.72581 16.5943 6.94518 16.7374 7.16456 16.8805C7.38393 17.0235 7.69105 17.1666 8.04205 17.2619C8.39305 17.405 8.65629 17.5004 8.87567 17.5957C9.09504 17.6911 9.40216 17.7865 9.84091 17.8818C10.2797 17.9772 10.5868 18.0726 10.8062 18.1203C10.9816 18.1203 11.3326 18.2156 11.8591 18.3587C12.3856 18.4541 12.6928 18.5494 12.8683 18.5494C13.0438 18.5494 13.3948 18.6448 13.9651 18.7402C14.5355 18.8355 14.8865 18.8832 15.0181 18.9309L20.8096 19.98C24.9777 20.6952 27.9173 21.7443 29.6722 23.1272C31.9098 24.9392 33.0506 27.5142 33.0506 30.7568C33.0506 35.2391 31.1201 38.434 27.2591 40.4368C24.8899 41.6766 21.4677 42.3442 16.9486 42.3442C11.7714 42.3442 7.99817 41.6289 5.58507 40.1507C3.56684 38.9586 2.11897 37.3373 1.24148 35.2391C0.27624 33.0933 -0.0747573 30.9952 0.012992 28.8494Z" fill="white"/>
<path d="M42.0957 19.3638H66.0074V22.2248H42.0957V38.5331H68.8592V41.3942H39.0684V1.33887H68.0695V4.19996H42.0957V19.3638Z" fill="white"/>
<path d="M73.3768 1.34717H90.9705C95.9722 1.34717 99.5261 2.39624 101.5 4.49437C103.036 6.06797 103.826 8.26148 103.826 11.0749C103.826 13.6499 103.08 15.7957 101.544 17.417C100.272 18.8475 98.517 19.7535 96.3232 20.2304V20.3258C99.4822 20.8026 101.895 21.8994 103.519 23.7114C105.01 25.3327 105.712 27.3831 105.712 29.9581C105.712 33.0576 104.879 35.5849 103.168 37.4923C100.93 40.0673 96.6742 41.4025 90.3563 41.4025H73.2891V1.34717H73.3768ZM76.448 4.20826V19.1336H90.1808C94.2611 19.1336 97.113 18.2753 98.8241 16.6063C100.096 15.3188 100.755 13.5545 100.755 11.2656C100.755 9.26286 100.228 7.64157 99.1751 6.49714C97.7272 4.92354 94.9631 4.16058 90.8389 4.16058H76.4042L76.448 4.20826ZM76.448 21.9947V38.5414H90.4879C92.1551 38.5414 93.4714 38.5414 94.4366 38.446C95.4019 38.3506 96.4549 38.1122 97.6833 37.6831C98.9118 37.2539 99.921 36.5863 100.667 35.7757C101.939 34.3928 102.553 32.5331 102.553 30.2442C102.553 27.9553 101.939 25.9526 100.667 24.7605C98.9557 22.9484 95.4457 22.0901 90.1808 22.0901H76.4042L76.448 21.9947Z" fill="white"/>
<path d="M120.183 4.19996H105.529V1.33887H137.865V4.19996H123.211V41.3942H120.14V4.19996H120.183Z" fill="white"/>
<path d="M177.001 21.3588C177.001 27.7485 175.246 32.8031 171.736 36.6179C168.226 40.4327 163.048 42.5785 156.555 42.5785C150.062 42.5785 145.06 40.5758 141.374 36.6179C137.689 32.6601 136.109 27.7009 136.109 21.3588C136.109 15.0167 137.864 9.9144 141.374 6.09961C144.884 2.28481 150.105 0.0913086 156.555 0.0913086C163.005 0.0913086 168.05 2.09407 171.736 6.05192C175.421 10.0098 177.001 14.969 177.001 21.3111V21.3588ZM156.511 2.85703C151.465 2.85703 147.341 4.47832 144.182 7.67321C140.936 11.0111 139.268 15.5889 139.268 21.3588C139.268 27.1286 140.892 31.7064 144.182 35.0443C147.341 38.2392 151.465 39.8605 156.511 39.8605C161.557 39.8605 165.681 38.2392 168.84 35.0443C172.087 31.7064 173.754 27.1286 173.754 21.3588C173.754 15.5889 172.13 11.0588 168.84 7.67321C165.681 4.47832 161.557 2.85703 156.511 2.85703Z" fill="white"/>
</svg>
